<!-- Generated by IcoMoon.io -->
<svg version="1.1" fill="#a6a6a6" xmlns="http://www.w3.org/2000/svg" width="1024" height="1024" viewBox="0 0 1024 1024">
<title></title>
<g id="icomoon-ignore">
</g>
<path d="M520.954 475.226l384.295-384.295c12.743-12.743 33.129-12.868 45.626-0.371 12.131 12.131 12.331 32.924-0.371 45.626l-384.295 384.295 384.295 384.295c12.702 12.702 12.503 33.495 0.371 45.626-12.497 12.497-32.883 12.372-45.626-0.371l-384.295-384.295-384.295 384.295c-12.743 12.743-33.129 12.868-45.626 0.371-12.131-12.131-12.331-32.924 0.371-45.626l384.295-384.295-384.295-384.295c-12.702-12.702-12.503-33.495-0.371-45.626 12.497-12.497 32.883-12.372 45.626 0.371l384.295 384.295z"></path>
</svg>
