<svg width="20" height="18" xmlns="http://www.w3.org/2000/svg"><path d="M17.161 8.508L10 15.874 2.839 8.508c-1.498-1.54-1.498-4.045 0-5.586a3.762 3.762 0 012.715-1.156c1.025 0 1.99.41 2.715 1.156l1.124 1.157a.866.866 0 001.214 0l1.124-1.157a3.76 3.76 0 012.715-1.156c1.026 0 1.99.41 2.715 1.156 1.498 1.54 1.498 4.046 0 5.586zM14.446 0c1.485 0 2.88.594 3.929 1.673 2.167 2.23 2.167 5.855 0 8.083l-7.763 7.985a.844.844 0 01-.774.242.839.839 0 01-.45-.242L1.625 9.756c-2.167-2.228-2.167-5.854 0-8.083A5.443 5.443 0 015.554 0c1.484 0 2.88.594 3.929 1.673l.517.532.517-.532A5.444 5.444 0 0114.447 0z" fill="#FFF" fill-rule="evenodd"/></svg>