<svg height="15" viewBox="0 0 18 15" width="18" xmlns="http://www.w3.org/2000/svg"><path d="m875.684 273.223a1.757 1.757 0 0 1 -2.468.456l-3.291-2.12a1.8 1.8 0 0 1 -.763-1.542 6.394 6.394 0 0 1 -8.381.908 6.506 6.506 0 0 1 -2.675-4.209 6.579 6.579 0 0 1 1.04-4.9 6.4 6.4 0 0 1 8.976-1.658 6.619 6.619 0 0 1 2.124 8.263 1.75 1.75 0 0 1 1.7.178l3.293 2.12a1.815 1.815 0 0 1 .445 2.504zm-6.809-8.5a4.532 4.532 0 0 0 -1.864-2.935 4.464 4.464 0 0 0 -6.26 1.154 4.613 4.613 0 0 0 1.139 6.351 4.464 4.464 0 0 0 6.26-1.154 4.583 4.583 0 0 0 .725-3.414z" fill="#fff" transform="translate(-858 -259)"/></svg>