<?xml version="1.0" encoding="UTF-8"?>
<svg width="22px" height="22px" viewBox="0 0 22 22" version="1.1" xmlns="http://www.w3.org/2000/svg" xmlns:xlink="http://www.w3.org/1999/xlink">
    <title>Group 24</title>
    <g id="шапка-сайта" stroke="none" stroke-width="1" fill="none" fill-rule="evenodd">
        <g id="арендодатель" transform="translate(-360.000000, -426.000000)">
            <g id="Group-10" transform="translate(341.000000, 221.000000)">
                <g id="Group-9" transform="translate(0.000000, 195.000000)">
                    <g id="Group-24" transform="translate(20.000000, 11.000000)">
                        <circle id="Oval-2" stroke="#979797" cx="10" cy="10" r="10"></circle>
                        <g id="Group-22" transform="translate(9.000000, 5.000000)" fill="#A0A0A0" fill-rule="nonzero">
                            <path d="M1,4 C0.447732328,4 0,4.34172011 0,4.76322413 L0,8.23677587 C0,8.65831679 0.447732328,9 1,9 C1.55231602,9 2,8.65831679 2,8.23677587 L2,4.76322413 C2,4.34172011 1.55231602,4 1,4 Z" id="Shape"></path>
                            <path d="M1.70710245,0.292897549 C1.52086254,0.106657642 1.26311464,0 1,0 C0.736885365,0 0.479137456,0.106657642 0.292897549,0.292897549 C0.106657642,0.479089107 0,0.736885365 0,1 C0,1.26311464 0.106657642,1.52086254 0.292897549,1.70710245 C0.479137456,1.89329401 0.736885365,2 1,2 C1.26311464,2 1.52086254,1.89334236 1.70710245,1.70710245 C1.89334236,1.52086254 2,1.26311464 2,1 C1.99995165,0.736885365 1.89324566,0.479137456 1.70710245,0.292897549 Z" id="Shape"></path>
                        </g>
                    </g>
                </g>
            </g>
        </g>
    </g>
</svg>