<?xml version="1.0" encoding="UTF-8"?>
<svg width="250px" height="41px" viewBox="0 0 250 41" version="1.1" xmlns="http://www.w3.org/2000/svg" xmlns:xlink="http://www.w3.org/1999/xlink">
    <title>logo_horizontal</title>
    <g id="лого" stroke="none" stroke-width="1" fill="none" fill-rule="evenodd">
        <g id="Artboard" transform="translate(-125.000000, -230.000000)">
            <g id="logo_horizontal" transform="translate(125.000000, 230.000000)">
                <path d="M240.395223,19.9694672 L243.682803,11.3291344 L249.988535,11.3291344 L245.801911,21.1607887 C245.087261,22.7842221 244.348089,24.4111453 243.461146,25.9536766 C240.667516,30.8125551 237.703185,32.0289404 232.26465,30.988636 L232.952548,26.0050732 C234.546497,26.7357292 237.033121,26.6640278 237.247771,25.1338698 L229.524204,11.3291344 L236.27293,11.3291344 L240.395223,19.9694672 L240.395223,19.9694672 Z M70.3828025,16.3393472 L71.266879,11.6448108 C64.1187898,9.31039171 55.7210191,12.9960327 55.7210191,21.260092 C55.7210191,24.7445884 57.1480892,27.3248861 59.406051,28.9968606 C62.8506369,31.5473356 68.0321656,31.7110432 72.1245223,30.9096375 L71.5363057,25.9901618 C67.4907643,27.0146031 61.6308917,26.5050792 61.6308917,21.1017779 C61.6308917,16.6312289 66.5716561,14.2787259 70.3828025,16.3393472 L70.3828025,16.3393472 Z M83.8273885,19.9694672 L87.1149682,11.3291344 L93.4207006,11.3291344 L89.2340764,21.1607887 C88.5194268,22.7842221 87.7802548,24.4111453 86.8933121,25.9536766 C84.0993631,30.8125551 81.1350318,32.0289404 75.6968153,30.988636 L76.3843949,26.0050732 C77.9786624,26.7357292 80.4652866,26.6640278 80.6799363,25.1338698 L72.9563694,11.3291344 L79.7050955,11.3291344 L83.8273885,19.9694672 L83.8273885,19.9694672 Z M94.7267516,11.3291344 L94.7267516,16.2368714 L100.412102,16.2368714 L100.412102,30.83286 L106.53758,30.83286 L106.53758,16.2368714 L112.22293,16.2368714 L112.22293,11.3291344 L94.7267516,11.3291344 L94.7267516,11.3291344 Z M123.18949,15.197836 C125.951911,15.197836 127.07293,18.149331 127.07293,21.0611683 C127.07293,24.5710457 125.551592,26.9241833 123.18949,26.9241833 C120.586943,26.9241833 119.185669,24.4114626 119.185669,21.0611683 C119.185669,18.1893061 120.266561,15.197836 123.18949,15.197836 L123.18949,15.197836 Z M123.349363,10.89036 C117.063694,10.89036 112.899682,14.9186448 112.899682,21.2204341 C112.899682,27.5225408 117.303822,31.2716343 123.029299,31.2716343 C128.273885,31.2716343 133.358917,28.0009729 133.358917,20.86161 C133.358917,14.998595 129.355096,10.89036 123.349363,10.89036 L123.349363,10.89036 Z M135.204777,11.3291344 L135.204777,17.7905069 C135.204777,24.7173038 141.991401,26.7328739 146.775478,23.7144364 L146.855414,23.7144364 L146.855414,30.83286 L152.941083,30.83286 L152.941083,11.3291344 L146.855414,11.3291344 L146.855414,19.6652123 C146.294904,20.1036694 145.214013,20.5027859 144.213057,20.5027859 C142.13121,20.5027859 141.290446,19.3857038 141.290446,17.2321245 L141.290446,11.3291344 L135.204777,11.3291344 L135.204777,11.3291344 Z M157.029299,11.3291344 L157.029299,30.83286 L163.11465,30.83286 L163.11465,23.2356869 L169.280573,23.2356869 L169.280573,30.83286 L175.406369,30.83286 L175.406369,11.3291344 L169.280573,11.3291344 L169.280573,18.248317 L163.11465,18.248317 L163.11465,11.3291344 L157.029299,11.3291344 L157.029299,11.3291344 Z M188.702548,15.197836 C191.464968,15.197836 192.585987,18.149331 192.585987,21.0611683 C192.585987,24.5710457 191.06465,26.9241833 188.702548,26.9241833 C186.1,26.9241833 184.698726,24.4114626 184.698726,21.0611683 C184.698726,18.1893061 185.779936,15.197836 188.702548,15.197836 L188.702548,15.197836 Z M188.862739,10.89036 C182.576752,10.89036 178.413057,14.9186448 178.413057,21.2204341 C178.413057,27.5225408 182.816879,31.2716343 188.542357,31.2716343 C193.787261,31.2716343 198.871975,28.0009729 198.871975,20.86161 C198.871975,14.998595 194.868471,10.89036 188.862739,10.89036 L188.862739,10.89036 Z M218.23758,30.83286 L212.251274,30.83286 L212.251274,11.1292589 C214.559873,10.989346 220.898726,10.6314737 224.142038,11.3100986 C225.170064,11.52552 226.042675,12.0359957 226.763057,12.553134 C227.603185,13.1565676 228.249363,13.908163 228.691401,14.8082373 C229.133758,15.7130706 229.352229,16.7143518 229.352229,17.8165224 C229.352229,18.9922981 229.133758,20.0256227 228.697134,20.9168137 C228.259873,21.8124464 227.616879,22.5443715 226.763057,23.1167134 C224.499682,24.63545 220.863376,24.3292915 218.23758,24.3292915 L218.23758,30.83286 L218.23758,30.83286 Z M218.23758,20.151576 C219.602866,20.151576 221.220064,20.262618 222.421019,19.5443352 C223.012102,19.1912218 223.385669,18.5148177 223.385669,17.6604292 C223.385669,16.8336425 223.017516,16.171198 222.437261,15.8225263 C221.24172,15.1042435 219.6,15.224486 218.23758,15.224486 L218.23758,20.151576 L218.23758,20.151576 Z" id="Fill-2" fill="#FFFFFF"></path>
                <path d="M205.448089,17.8387308 C207.337898,17.8387308 208.869745,19.3647645 208.869745,21.2474015 C208.869745,23.1300384 207.337898,24.6560721 205.448089,24.6560721 C203.55828,24.6560721 202.026433,23.1300384 202.026433,21.2474015 C202.026433,19.3647645 203.55828,17.8387308 205.448089,17.8387308" id="Fill-3" fill="#D91F43"></path>
                <path d="M11.5302548,6.41029321 C14.5640127,6.28465717 18.9308917,4.06064552 23.5843949,3.11044368 C28.2550955,2.15706922 33.1531847,1.99558249 36.3738854,1.33789688 C40.6343949,0.467962509 42.2410828,-0.661175504 42.4522293,1.21194358 C42.5079618,1.70306627 40.8815287,2.82173461 41.0633758,3.70562854 C41.5242038,5.94423428 43.0598726,8.80594399 43.710828,11.9700051 C44.4633758,15.6277269 44.3318471,19.5925591 44.8095541,21.9133359 C45.1729299,23.6795375 48.0961783,24.4765014 46.2359873,25.3550019 C43.727707,26.5387091 43.5570064,24.6966817 40.8716561,25.2449117 C40.4926752,25.3223238 40.1073248,25.3137577 39.7261146,25.227145 C39.1031847,16.6382087 37.2156051,14.5458611 36.7,11.7599772 C36.9187898,11.2526741 37.4850318,10.5769045 37.6643312,10.1013277 C37.9716561,9.28659701 37.7503185,8.54261594 37.5894904,7.83956175 C36.3328025,5.02226882 33.2805732,6.16695271 33.2805732,6.16695271 C33.2805732,6.16695271 30.539172,6.89665696 27.5649682,7.42014044 C25.1665605,7.84209986 22.6165605,8.06608733 21.2308917,8.15650721 C18.1270701,8.35860356 9.99840764,10.5366121 10.1175159,10.7682139 C9.88726115,10.3326122 9.74363057,9.99948634 9.70159236,9.79453462 C9.40414013,8.35067199 7.01433121,8.69807467 7.04044586,7.97566746 C7.08853503,6.64221226 7.4910828,6.5771734 11.5302548,6.41029321 L11.5302548,6.41029321 Z M33.7480892,20.6185868 C33.8671975,22.4485581 33.6792994,25.7398415 32.4414013,27.9457692 C31.088535,30.3579177 29.0321656,31.7297617 29.0321656,31.7297617 C29.0321656,31.7297617 32.3133758,32.5070553 34.0920382,28.7919089 C35.8707006,25.0764452 34.0308917,21.0211931 33.7480892,20.6185868 L33.7480892,20.6185868 Z M39.260828,33.128573 C36.7671975,34.3056177 36.5974522,32.47406 33.9273885,33.0191173 C30.5009554,33.7186816 25.7092357,35.5308863 20.9382166,36.5052001 C16.0410828,37.5048949 11.1751592,37.6647953 8.52356688,38.2060455 C7.48789809,38.4176597 6.79617834,40.1708535 6.21082803,39.8278925 C3.87484076,38.4595384 6.23630573,38.2917065 5.75382166,35.9461832 C5.27707006,33.6292136 3.65254777,30.3115973 2.93630573,26.8290045 C2.25955414,23.5389901 3.39713376,19.8968141 2.9366242,17.6575738 C2.6410828,16.22196 0.264968153,16.5674591 0.291082803,15.8491763 C0.338535032,14.5233354 0.738853503,14.4589311 4.75477707,14.2930027 C7.77101911,14.1680012 12.1130573,11.95668 16.7398089,11.0118717 C21.3834395,10.0638907 26.2535032,9.90335573 29.455414,9.24947727 C33.6917197,8.3846191 35.2888535,7.26214361 35.4993631,9.12447576 C35.5544586,9.61242582 33.9375796,10.7250662 34.1184713,11.6035666 C34.5764331,13.8294819 36.1031847,16.6750112 36.7503185,19.820671 C37.4987261,23.4571363 37.3678344,27.3994428 37.8426752,29.7068946 C38.2041401,31.4626265 41.1105096,32.2551487 39.260828,33.128573 L39.260828,33.128573 Z" id="Fill-4" fill="#F51449"></path>
            </g>
        </g>
    </g>
</svg>