<!-- Generated by IcoMoon.io -->
<svg version="1.1" xmlns="http://www.w3.org/2000/svg" width="1024" height="1024" fill="#a6a6a6" viewBox="0 0 1024 1024">
<title></title>
<g id="icomoon-ignore">
</g>
<path d="M971.297 244.951c0-23.296-7.758-44.372-20.135-60.441-0.206-0.319-0.253-0.695-0.475-1.016-0.206-0.282-0.492-0.396-0.714-0.658-14.074-17.464-33.907-28.508-55.992-28.508h-765.448c-22.085 0-41.919 11.044-56.024 28.508-0.206 0.262-0.508 0.376-0.714 0.678-0.223 0.301-0.269 0.695-0.475 1.016-12.36 16.069-20.119 37.126-20.119 60.422v534.116c0 23.861 8.076 45.444 20.991 61.647 0.254 0.337 0.334 0.752 0.619 1.073 0.095 0.112 0.206 0.13 0.302 0.244 14.074 17.012 33.668 27.663 55.421 27.663h765.448c21.753 0 41.364-10.668 55.421-27.679 0.095-0.096 0.206-0.132 0.301-0.226 0.271-0.301 0.349-0.715 0.603-1.036 12.931-16.201 21.007-37.803 21.007-61.684v-534.118h-0.017zM670.141 483.783l265.156-260.755c2.601 6.699 4.14 14.094 4.14 21.921v534.116c0 7.077-1.237 13.794-3.38 19.985l-265.917-315.267zM893.98 191.678c6.68 0 12.979 1.806 18.706 4.855l-401.43 394.736-401.43-394.736c5.728-3.047 12.027-4.855 18.706-4.855h765.448zM86.455 799.034c-2.142-6.171-3.38-12.908-3.38-19.985v-534.098c0-7.828 1.54-15.224 4.14-21.921l265.156 260.755-265.917 315.249zM128.532 832.322c-7.361 0-14.216-2.259-20.371-5.907l268.709-318.562 124.153 122.090c2.951 2.917 6.6 4.385 10.234 4.385s7.283-1.467 10.234-4.385l124.153-122.090 268.709 318.562c-6.157 3.65-13.009 5.907-20.373 5.907h-765.447z"></path>
</svg>
