<!-- Generated by IcoMoon.io -->
<svg version="1.1" xmlns="http://www.w3.org/2000/svg" width="1024" height="1024" fill="#a6a6a6" viewBox="0 0 1024 1024">
<title></title>
<g id="icomoon-ignore">
</g>
<path d="M860.909 640.614c-36.819-36.522-83.002-36.522-119.821 0-28.070 27.77-56.134 55.539-83.603 83.91-7.546 7.846-13.882 9.357-23.236 4.224-18.109-9.958-37.425-17.805-54.93-28.672-81.187-51.008-149.396-116.812-209.759-191.064-29.879-36.824-56.74-76.063-75.151-120.434-3.622-9.055-3.32-14.79 4.225-22.034 28.068-27.165 55.533-54.934 82.998-82.704 38.33-38.635 38.33-83.911-0.302-122.848-21.731-22.034-43.763-44.068-65.795-65.801-22.636-22.638-44.97-45.276-67.908-67.914-37.123-36.221-82.998-36.522-120.12 0-28.068 27.769-55.533 56.444-83.903 83.61-26.559 25.354-40.141 56.141-42.857 92.362-4.225 58.557 9.96 114.095 30.181 168.124 41.65 111.68 104.728 210.684 181.086 301.841 103.219 123.149 226.962 220.339 371.529 290.669 64.892 31.693 132.495 55.84 205.832 59.763 50.406 2.714 94.47-9.958 129.478-49.197 24.147-26.867 51.008-51.315 76.659-76.973 37.728-38.029 38.029-84.211 0.608-121.939-45.274-45.28-90.246-89.952-135.213-134.925z"></path>
</svg>
