<?xml version="1.0" encoding="UTF-8"?>
<svg width="40px" height="40px" viewBox="0 0 40 40" version="1.1" xmlns="http://www.w3.org/2000/svg" xmlns:xlink="http://www.w3.org/1999/xlink">
    <title>Group 26</title>
    <g id="шапка-сайта" stroke="none" stroke-width="1" fill="none" fill-rule="evenodd">
        <g id="арендодатель" transform="translate(-967.000000, -534.000000)" fill="#A6A6A6" fill-rule="nonzero">
            <g id="Group-10" transform="translate(717.000000, 186.000000)">
                <g id="Group-26" transform="translate(250.000000, 348.000000)">
                    <g id="paper-plane-(1)" transform="translate(2.000000, 4.000000)">
                        <path d="M0.00315274949,15.5582322 C0.0471446029,16.2987617 0.538386965,16.9219796 1.24958859,17.1346069 L14.4178167,21.1158697 L14.9017271,30.1928554 C14.923723,30.5521222 15.1656782,30.8673971 15.5102811,30.9847088 C15.6055967,31.0213686 15.7082444,31.0360326 15.8035601,31.0360326 C16.0601792,31.0360326 16.3021344,30.9333849 16.4781018,30.7354216 L21.1339063,25.5810428 L27.7326843,30.1488635 C28.0259633,30.3541589 28.3705662,30.4641385 28.729833,30.4641385 C29.5583462,30.4641385 30.2768798,29.8775804 30.4528473,29.0563992 L35.929833,1.14356823 C35.9958208,0.820961303 35.8711772,0.483690428 35.62189,0.278395112 C35.3652709,0.0657678208 35.020668,0.0144439919 34.7127251,0.139087576 L1.05895723,13.8352179 C0.377083503,14.1431609 -0.0408391039,14.8177026 0.00315274949,15.5582322 Z M16.5734175,27.9419389 L16.2728065,22.215666 L19.6455153,24.5472342 L16.5734175,27.9419389 Z M28.7005051,28.6384766 L16.6907291,20.3240163 L33.532277,4.0323666 L28.7005051,28.6384766 Z M31.6846191,3.31383299 L15.0337026,19.4221833 L1.88013849,15.4482525 L31.6846191,3.31383299 Z" id="Shape"></path>
                    </g>
                </g>
            </g>
        </g>
    </g>
</svg>