<!-- Generated by IcoMoon.io -->
<svg version="1.1" xmlns="http://www.w3.org/2000/svg" width="1024" height="1024" fill="#a6a6a6" viewBox="0 0 1024 1024">
<title></title>
<g id="icomoon-ignore">
</g>
<path d="M478.484 643.906c-0.229-8.25-0.344-14.437-0.344-18.563 0-24.292 3.437-45.26 10.312-62.906 5.042-13.292 13.177-26.698 24.406-40.219 8.25-9.854 23.088-24.234 44.516-43.141s35.349-33.974 41.766-45.203c6.417-11.229 9.625-23.49 9.625-36.781 0-24.063-9.396-45.203-28.188-63.422s-41.823-27.328-69.094-27.328c-26.354 0-48.354 8.25-66 24.75s-29.219 42.281-34.719 77.344l-63.594-7.562c5.729-46.979 22.745-82.958 51.047-107.938s65.713-37.469 112.234-37.469c49.271 0 88.573 13.406 117.906 40.219s44 59.239 44 97.281c0 22-5.156 42.281-15.469 60.844s-30.479 41.135-60.5 67.719c-20.167 17.875-33.344 31.052-39.531 39.531s-10.771 18.219-13.75 29.219c-2.979 11-4.698 28.875-5.156 53.625h-59.469zM474.703 768v-70.469h70.469v70.469h-70.469zM511.814 0c141.335 0 269.301 57.448 362.194 149.93 92.52 92.879 149.992 220.792 149.992 362.070s-57.472 269.191-149.992 362.070c-92.917 92.482-220.858 149.93-362.194 149.93s-269.277-57.448-361.797-149.93c-92.917-92.879-150.017-220.767-150.017-362.070 0-141.277 57.075-269.191 149.992-362.070 92.545-92.482 220.486-149.93 361.822-149.93zM834.643 189.304c-82.673-82.639-196.848-133.418-322.829-133.418s-240.156 50.754-322.829 133.418c-82.276 82.639-133.472 196.767-133.472 322.696s51.171 240.057 133.472 322.721c82.673 82.639 196.848 133.418 322.829 133.418s240.156-50.779 322.829-133.418c82.673-82.639 133.869-196.767 133.869-322.721 0-125.93-51.171-240.057-133.869-322.696z"></path>
</svg>
