<svg width="135" height="40" viewBox="0 0 135 40" fill="none" xmlns="http://www.w3.org/2000/svg">
<rect width="135" height="40" rx="3" fill="black"/>
<path d="M32.769 20.3007C32.7797 19.466 33.0014 18.6477 33.4135 17.9217C33.8255 17.1957 34.4145 16.5858 35.1256 16.1486C34.6738 15.5035 34.0779 14.9725 33.385 14.598C32.6922 14.2234 31.9216 14.0156 31.1344 13.991C29.4552 13.8147 27.8272 14.9958 26.9715 14.9958C26.0992 14.9958 24.7817 14.0085 23.363 14.0376C22.4453 14.0673 21.551 14.3341 20.7671 14.8122C19.9832 15.2903 19.3365 15.9632 18.8901 16.7655C16.9561 20.1139 18.3987 25.035 20.2513 27.7416C21.1782 29.0669 22.2615 30.5474 23.6789 30.4949C25.066 30.4374 25.584 29.6104 27.2583 29.6104C28.9171 29.6104 29.4031 30.4949 30.8493 30.4615C32.3377 30.4374 33.2754 29.1303 34.1698 27.7924C34.8358 26.848 35.3483 25.8043 35.6882 24.6999C34.8235 24.3341 34.0856 23.722 33.5665 22.9397C33.0474 22.1574 32.77 21.2396 32.769 20.3007Z" fill="white"/>
<path d="M30.0376 12.211C30.8491 11.2367 31.2489 9.98457 31.1521 8.72034C29.9123 8.85056 28.767 9.44312 27.9445 10.3799C27.5424 10.8376 27.2344 11.37 27.0381 11.9468C26.8419 12.5236 26.7612 13.1334 26.8008 13.7413C27.4209 13.7477 28.0344 13.6133 28.5951 13.3482C29.1558 13.0831 29.649 12.6943 30.0376 12.211Z" fill="white"/>
<path d="M50.3022 27.1397H45.5688L44.4321 30.4961H42.4272L46.9106 18.0781H48.9936L53.477 30.4961H51.438L50.3022 27.1397ZM46.0591 25.5908H49.8111L47.9615 20.1436H47.9097L46.0591 25.5908Z" fill="white"/>
<path d="M63.1597 25.9698C63.1597 28.7833 61.6538 30.5909 59.3814 30.5909C58.8057 30.621 58.2332 30.4884 57.7294 30.2083C57.2256 29.9281 56.8109 29.5118 56.5327 29.0069H56.4897V33.4913H54.6313V21.4425H56.4302V22.9483H56.4644C56.7553 22.4459 57.1771 22.0317 57.6847 21.7498C58.1923 21.468 58.7669 21.329 59.3472 21.3477C61.645 21.3477 63.1597 23.1641 63.1597 25.9698ZM61.2495 25.9698C61.2495 24.1368 60.3023 22.9317 58.857 22.9317C57.437 22.9317 56.482 24.1622 56.482 25.9698C56.482 27.794 57.437 29.0157 58.857 29.0157C60.3023 29.0157 61.2495 27.8194 61.2495 25.9698Z" fill="white"/>
<path d="M73.1245 25.9698C73.1245 28.7833 71.6187 30.5909 69.3462 30.5909C68.7706 30.621 68.1981 30.4884 67.6943 30.2083C67.1905 29.9281 66.7758 29.5118 66.4976 29.0069H66.4546V33.4913H64.5962V21.4425H66.395V22.9483H66.4292C66.7201 22.4459 67.1419 22.0317 67.6495 21.7498C68.1571 21.468 68.7317 21.329 69.312 21.3477C71.6099 21.3477 73.1245 23.1641 73.1245 25.9698ZM71.2144 25.9698C71.2144 24.1368 70.2671 22.9317 68.8218 22.9317C67.4019 22.9317 66.4468 24.1622 66.4468 25.9698C66.4468 27.794 67.4019 29.0157 68.8218 29.0157C70.2671 29.0157 71.2144 27.8194 71.2144 25.9698H71.2144Z" fill="white"/>
<path d="M79.7105 27.0362C79.8482 28.2676 81.0445 29.0762 82.6792 29.0762C84.2456 29.0762 85.3726 28.2676 85.3726 27.1572C85.3726 26.1934 84.6929 25.6162 83.0835 25.2207L81.4742 24.833C79.1939 24.2822 78.1353 23.2158 78.1353 21.4854C78.1353 19.3428 80.0025 17.8711 82.6538 17.8711C85.2778 17.8711 87.0767 19.3428 87.1372 21.4854H85.2612C85.1489 20.2461 84.1245 19.4981 82.6274 19.4981C81.1304 19.4981 80.106 20.2549 80.106 21.3565C80.106 22.2344 80.7603 22.751 82.3608 23.1465L83.729 23.4824C86.2769 24.0849 87.3355 25.1084 87.3355 26.9248C87.3355 29.248 85.4849 30.7031 82.5415 30.7031C79.7876 30.7031 77.9282 29.2822 77.8081 27.0361L79.7105 27.0362Z" fill="white"/>
<path d="M91.3462 19.2998V21.4424H93.0679V22.9141H91.3462V27.9053C91.3462 28.6807 91.6909 29.042 92.4477 29.042C92.6521 29.0384 92.8562 29.0241 93.0591 28.999V30.4619C92.7188 30.5255 92.3729 30.5543 92.0268 30.5478C90.1938 30.5478 89.479 29.8593 89.479 28.1035V22.9141H88.1626V21.4424H89.479V19.2998H91.3462Z" fill="white"/>
<path d="M94.0649 25.9697C94.0649 23.1211 95.7427 21.3311 98.3589 21.3311C100.984 21.3311 102.654 23.1211 102.654 25.9697C102.654 28.8262 100.993 30.6084 98.3589 30.6084C95.726 30.6084 94.0649 28.8262 94.0649 25.9697ZM100.76 25.9697C100.76 24.0156 99.8647 22.8623 98.3589 22.8623C96.853 22.8623 95.9585 24.0244 95.9585 25.9697C95.9585 27.9316 96.853 29.0762 98.3589 29.0762C99.8647 29.0762 100.76 27.9316 100.76 25.9697H100.76Z" fill="white"/>
<path d="M104.186 21.4424H105.959V22.9834H106.002C106.121 22.5021 106.403 22.0768 106.8 21.7789C107.197 21.481 107.684 21.3287 108.179 21.3476C108.393 21.3469 108.607 21.3702 108.816 21.417V23.1553C108.546 23.0726 108.264 23.0347 107.981 23.043C107.711 23.032 107.442 23.0796 107.192 23.1825C106.942 23.2854 106.718 23.4411 106.534 23.639C106.35 23.8369 106.211 24.0723 106.126 24.3289C106.042 24.5856 106.014 24.8575 106.044 25.126V30.4961H104.186L104.186 21.4424Z" fill="white"/>
<path d="M117.384 27.8369C117.134 29.4805 115.534 30.6084 113.486 30.6084C110.852 30.6084 109.217 28.8437 109.217 26.0127C109.217 23.1729 110.861 21.3311 113.408 21.3311C115.913 21.3311 117.488 23.0518 117.488 25.7969V26.4336H111.093V26.5459C111.064 26.8791 111.105 27.2148 111.216 27.5306C111.326 27.8464 111.502 28.1352 111.732 28.3778C111.963 28.6203 112.242 28.8111 112.552 28.9374C112.861 29.0637 113.195 29.1226 113.529 29.1103C113.968 29.1515 114.409 29.0498 114.785 28.8203C115.162 28.5909 115.455 28.246 115.62 27.8369L117.384 27.8369ZM111.102 25.1348H115.628C115.645 24.8352 115.6 24.5354 115.495 24.2541C115.39 23.9729 115.229 23.7164 115.02 23.5006C114.812 23.2849 114.561 23.1145 114.283 23.0003C114.006 22.8861 113.708 22.8305 113.408 22.8369C113.105 22.8351 112.805 22.8933 112.525 23.008C112.245 23.1227 111.99 23.2918 111.776 23.5054C111.562 23.7191 111.392 23.973 111.276 24.2527C111.16 24.5323 111.101 24.8321 111.102 25.1348V25.1348Z" fill="white"/>
<path d="M44.7383 11.2535H45.5361C45.6735 11.2706 45.8129 11.2591 45.9455 11.2196C46.0782 11.1802 46.2013 11.1137 46.307 11.0243C46.4127 10.935 46.4987 10.8247 46.5596 10.7004C46.6206 10.5762 46.6552 10.4406 46.6611 10.3023C46.6611 9.75205 46.2471 9.39658 45.5449 9.39658C45.4042 9.37692 45.261 9.38565 45.1237 9.42226C44.9864 9.45887 44.8579 9.52261 44.7456 9.60973C44.6334 9.69684 44.5397 9.80556 44.4702 9.92947C44.4007 10.0534 44.3567 10.19 44.3408 10.3312H43.4648C43.4799 10.0749 43.5476 9.8244 43.6636 9.59539C43.7797 9.36638 43.9417 9.16371 44.1394 9.00001C44.3372 8.8363 44.5666 8.71507 44.8133 8.64385C45.0599 8.57263 45.3186 8.55295 45.5732 8.58603C46.748 8.58603 47.5752 9.24374 47.5752 10.1905C47.578 10.5077 47.4719 10.8162 47.2746 11.0646C47.0773 11.313 46.8008 11.4862 46.4912 11.5553V11.6256C46.8582 11.6419 47.2038 11.8028 47.4525 12.0732C47.7012 12.3435 47.8328 12.7014 47.8184 13.0685C47.7912 13.3323 47.7116 13.5882 47.5843 13.8209C47.457 14.0536 47.2845 14.2586 47.077 14.4239C46.8694 14.5891 46.631 14.7112 46.3756 14.7831C46.1202 14.8549 45.8531 14.8751 45.5898 14.8424C45.326 14.8783 45.0577 14.8608 44.8008 14.7909C44.5439 14.7209 44.3037 14.5999 44.0946 14.4352C43.8854 14.2704 43.7116 14.0652 43.5834 13.8318C43.4553 13.5985 43.3754 13.3417 43.3486 13.0768H44.2383C44.292 13.6476 44.8164 14.0158 45.5898 14.0158C46.3633 14.0158 46.8682 13.6022 46.8682 13.0192C46.8682 12.4279 46.3926 12.0636 45.5615 12.0636H44.7383V11.2535Z" fill="white"/>
<path d="M48.8291 13.4244C48.8291 12.6139 49.4336 12.1466 50.5039 12.0802L51.7236 12.0099V11.6212C51.7236 11.1456 51.4102 10.8771 50.8018 10.8771C50.3057 10.8771 49.9629 11.0592 49.8633 11.3776H49.0029C49.0937 10.6041 49.8223 10.108 50.8438 10.108C51.9727 10.108 52.6094 10.67 52.6094 11.6212V14.6979H51.7529V14.0651H51.6826C51.5399 14.2921 51.3395 14.4771 51.1019 14.6013C50.8643 14.7255 50.5979 14.7844 50.3301 14.7721C50.141 14.7917 49.95 14.7716 49.7692 14.7129C49.5885 14.6542 49.422 14.5582 49.2806 14.4313C49.1392 14.3043 49.0259 14.1491 48.9482 13.9757C48.8704 13.8023 48.8298 13.6145 48.8291 13.4244ZM51.7236 13.0397V12.6632L50.624 12.7335C50.0039 12.775 49.7226 12.986 49.7226 13.3829C49.7226 13.7882 50.0742 14.024 50.5576 14.024C50.6993 14.0384 50.8423 14.0241 50.9784 13.982C51.1144 13.9399 51.2405 13.8709 51.3493 13.779C51.4581 13.6872 51.5473 13.5744 51.6116 13.4474C51.6759 13.3204 51.714 13.1817 51.7236 13.0397Z" fill="white"/>
<path d="M54.9678 10.943V14.6979H54.0791V10.1949H57.044V10.9429L54.9678 10.943Z" fill="white"/>
<path d="M62.4297 12.4444C62.4297 13.8751 61.7061 14.7721 60.5693 14.7721C60.2903 14.7911 60.0116 14.73 59.7661 14.5961C59.5206 14.4621 59.3185 14.2607 59.1836 14.0157H59.1133V16.1949H58.2246V10.1949H59.0801V10.9391H59.1465C59.2838 10.6855 59.4886 10.4749 59.7381 10.3304C59.9877 10.1858 60.2723 10.1131 60.5606 10.1202C61.7061 10.1202 62.4297 11.0133 62.4297 12.4444ZM61.5156 12.4444C61.5156 11.4932 61.0654 10.9185 60.3125 10.9185C59.5645 10.9185 59.0967 11.5054 59.0967 12.4483C59.0967 13.3868 59.5645 13.9742 60.3086 13.9742C61.0654 13.9742 61.5156 13.3995 61.5156 12.4444Z" fill="white"/>
<path d="M63.6133 16.3107V15.5455C63.7095 15.5578 63.8064 15.5633 63.9033 15.5621C64.0927 15.5762 64.2805 15.5198 64.4308 15.4038C64.5811 15.2878 64.6833 15.1204 64.7178 14.9337L64.7842 14.7145L63.1543 10.1949H64.1221L65.251 13.7716H65.3213L66.4463 10.1949H67.3887L65.71 14.8839C65.3252 15.9796 64.8995 16.3312 63.9815 16.3312C63.9073 16.3312 63.6963 16.3229 63.6133 16.3107Z" fill="white"/>
<path d="M68.0811 13.42H68.9658C69.0527 13.817 69.4248 14.024 69.9453 14.024C70.5371 14.024 70.9004 13.7633 70.9004 13.358C70.9004 12.9239 70.5742 12.7169 69.9453 12.7169H69.2715V12.0265H69.9336C70.4707 12.0265 70.7441 11.8199 70.7441 11.4435C70.7441 11.1129 70.4795 10.8605 69.9336 10.8605C69.4365 10.8605 69.0732 11.0714 69.0156 11.4269H68.1592C68.2232 11.0184 68.445 10.6514 68.7768 10.4048C69.1086 10.1581 69.524 10.0516 69.9336 10.108C71.0039 10.108 71.6162 10.5919 71.6162 11.3527C71.6212 11.5645 71.5533 11.7717 71.4239 11.9395C71.2945 12.1073 71.1114 12.2256 70.9053 12.2746V12.3449C71.1507 12.3765 71.376 12.4972 71.5384 12.6839C71.7007 12.8707 71.7889 13.1106 71.7861 13.358C71.7861 14.214 71.0576 14.7804 69.9453 14.7804C68.9619 14.7804 68.1631 14.3297 68.0811 13.42Z" fill="white"/>
<path d="M73.0659 14.6979V10.1949H73.9468V13.2921H74.0171L76.0923 10.195H76.9731V14.6979H76.0923V11.5841H76.0259L73.9468 14.6979L73.0659 14.6979Z" fill="white"/>
<path d="M81.8257 10.9429H80.4077V14.6978H79.5181V10.9429H78.1001V10.1949H81.8257V10.9429Z" fill="white"/>
<path d="M86.613 13.482C86.4919 13.8935 86.23 14.2494 85.8732 14.4875C85.5164 14.7257 85.0873 14.8309 84.6608 14.7847C84.3641 14.7926 84.0693 14.7358 83.7968 14.6182C83.5243 14.5007 83.2807 14.3253 83.0827 14.1041C82.8848 13.883 82.7374 13.6214 82.6507 13.3376C82.564 13.0538 82.5402 12.7545 82.5807 12.4605C82.5412 12.1656 82.5655 11.8657 82.652 11.581C82.7385 11.2964 82.8851 11.0336 83.082 10.8105C83.2789 10.5874 83.5214 10.4093 83.7931 10.2881C84.0648 10.1669 84.3594 10.1054 84.6569 10.108C85.9098 10.108 86.6667 10.964 86.6667 12.378V12.6881H83.487V12.7379C83.4729 12.9032 83.4936 13.0696 83.5476 13.2264C83.6017 13.3832 83.688 13.527 83.8009 13.6485C83.9138 13.77 84.0509 13.8665 84.2034 13.9318C84.3559 13.9972 84.5203 14.0299 84.6862 14.0279C84.8986 14.0533 85.1138 14.0149 85.3044 13.9177C85.495 13.8205 85.6524 13.6689 85.7565 13.482L86.613 13.482ZM83.487 12.0308H85.7604C85.7716 11.8798 85.7511 11.7281 85.7002 11.5854C85.6494 11.4427 85.5692 11.3123 85.4649 11.2024C85.3606 11.0926 85.2345 11.0058 85.0947 10.9475C84.9549 10.8893 84.8044 10.861 84.653 10.8643C84.4992 10.8623 84.3466 10.891 84.2042 10.9489C84.0617 11.0068 83.9324 11.0926 83.8237 11.2014C83.715 11.3101 83.6292 11.4396 83.5713 11.582C83.5135 11.7245 83.4848 11.8771 83.487 12.0308H83.487Z" fill="white"/>
<path d="M90.3804 10.1949H92.4106C93.2915 10.1949 93.8081 10.6412 93.8081 11.3399C93.8095 11.5617 93.7347 11.7771 93.5962 11.9503C93.4577 12.1234 93.264 12.2437 93.0474 12.2911V12.3614C93.3103 12.378 93.5569 12.495 93.7361 12.6882C93.9153 12.8814 94.0134 13.136 94.0103 13.3995C94.0103 14.1852 93.4194 14.6979 92.4312 14.6979H90.3804V10.1949ZM91.2612 10.8771V12.0431H92.1421C92.6792 12.0431 92.936 11.8365 92.936 11.4557C92.936 11.1046 92.7124 10.8771 92.2407 10.8771L91.2612 10.8771ZM91.2612 12.6964V14.0158H92.315C92.8404 14.0158 93.1216 13.7838 93.1216 13.358C93.1216 12.9074 92.8033 12.6964 92.2036 12.6964L91.2612 12.6964Z" fill="white"/>
</svg>
