<svg width="135" height="40" viewBox="0 0 135 40" fill="none" xmlns="http://www.w3.org/2000/svg">
<rect width="135" height="40" rx="3" fill="black"/>
<path fill-rule="evenodd" clip-rule="evenodd" d="M106.936 30H108.802V17.499H106.936V30ZM123.743 22.002L121.604 27.422H121.54L119.32 22.002H117.31L120.639 29.577L118.741 33.791H120.688L125.818 22.002H123.743ZM113.161 28.58C112.549 28.58 111.697 28.275 111.697 27.519C111.697 26.554 112.759 26.184 113.675 26.184C114.496 26.184 114.881 26.361 115.38 26.602C115.235 27.76 114.238 28.58 113.161 28.58ZM113.386 21.729C112.035 21.729 110.636 22.324 110.057 23.643L111.713 24.334C112.067 23.643 112.726 23.417 113.418 23.417C114.383 23.417 115.364 23.996 115.38 25.026V25.154C115.042 24.961 114.319 24.672 113.434 24.672C111.649 24.672 109.831 25.653 109.831 27.486C109.831 29.159 111.295 30.237 112.935 30.237C114.19 30.237 114.881 29.674 115.316 29.014H115.38V29.979H117.181V25.187C117.181 22.967 115.525 21.729 113.386 21.729ZM101.854 23.524H99.2V19.239H101.854C103.249 19.239 104.041 20.394 104.041 21.381C104.041 22.35 103.249 23.524 101.854 23.524ZM101.806 17.499H97.335V30H99.2V25.264H101.806C103.874 25.264 105.907 23.766 105.907 21.381C105.907 18.996 103.874 17.499 101.806 17.499ZM77.425 28.582C76.136 28.582 75.057 27.503 75.057 26.021C75.057 24.523 76.136 23.427 77.425 23.427C78.698 23.427 79.696 24.523 79.696 26.021C79.696 27.503 78.698 28.582 77.425 28.582ZM79.567 22.702H79.503C79.084 22.203 78.279 21.752 77.264 21.752C75.137 21.752 73.188 23.62 73.188 26.021C73.188 28.405 75.137 30.258 77.264 30.258C78.279 30.258 79.084 29.807 79.503 29.291H79.567V29.903C79.567 31.531 78.698 32.401 77.296 32.401C76.152 32.401 75.443 31.579 75.153 30.886L73.526 31.563C73.993 32.691 75.234 34.076 77.296 34.076C79.487 34.076 81.34 32.787 81.34 29.646V22.009H79.567V22.702ZM82.629 30H84.498V17.498H82.629V30ZM87.252 25.876C87.204 24.233 88.525 23.395 89.475 23.395C90.217 23.395 90.845 23.765 91.054 24.297L87.252 25.876ZM93.052 24.458C92.698 23.508 91.618 21.752 89.411 21.752C87.22 21.752 85.4 23.475 85.4 26.005C85.4 28.389 87.204 30.258 89.62 30.258C91.57 30.258 92.698 29.066 93.165 28.373L91.715 27.406C91.232 28.115 90.571 28.582 89.62 28.582C88.67 28.582 87.993 28.147 87.558 27.294L93.245 24.942L93.052 24.458ZM47.744 23.057V24.861H52.061C51.932 25.876 51.594 26.617 51.079 27.133C50.45 27.761 49.467 28.453 47.744 28.453C45.086 28.453 43.007 26.311 43.007 23.653C43.007 20.994 45.086 18.852 47.744 18.852C49.178 18.852 50.225 19.416 50.998 20.141L52.271 18.868C51.191 17.837 49.758 17.047 47.744 17.047C44.103 17.047 41.042 20.012 41.042 23.653C41.042 27.294 44.103 30.258 47.744 30.258C49.709 30.258 51.191 29.614 52.351 28.405C53.543 27.213 53.914 25.538 53.914 24.184C53.914 23.765 53.882 23.379 53.817 23.057H47.744ZM58.823 28.582C57.534 28.582 56.422 27.519 56.422 26.005C56.422 24.474 57.534 23.427 58.823 23.427C60.111 23.427 61.223 24.474 61.223 26.005C61.223 27.519 60.111 28.582 58.823 28.582ZM58.823 21.752C56.47 21.752 54.553 23.54 54.553 26.005C54.553 28.453 56.47 30.258 58.823 30.258C61.175 30.258 63.092 28.453 63.092 26.005C63.092 23.54 61.175 21.752 58.823 21.752ZM68.136 28.582C66.847 28.582 65.735 27.519 65.735 26.005C65.735 24.474 66.847 23.427 68.136 23.427C69.425 23.427 70.536 24.474 70.536 26.005C70.536 27.519 69.425 28.582 68.136 28.582ZM68.136 21.752C65.784 21.752 63.867 23.54 63.867 26.005C63.867 28.453 65.784 30.258 68.136 30.258C70.488 30.258 72.405 28.453 72.405 26.005C72.405 23.54 70.488 21.752 68.136 21.752Z" fill="#FFFFFE"/>
<path fill-rule="evenodd" clip-rule="evenodd" d="M10.4351 7.54698C10.1441 7.85498 9.97314 8.33198 9.97314 8.95098V31.049C9.97314 31.668 10.1441 32.145 10.4351 32.453L10.5091 32.525L22.8881 20.146V19.854L10.5091 7.47498L10.4351 7.54698Z" fill="#60C2E3"/>
<mask id="mask0" mask-type="alpha" maskUnits="userSpaceOnUse" x="22" y="15" width="12" height="10">
<path d="M27.0132 24.2741L22.8882 20.1461V19.8541L27.0152 15.7271L31.9972 18.5571C33.3932 19.3511 33.3932 20.6491 31.9972 21.4421L27.1082 24.2201L27.0132 24.2741Z" fill="white"/>
</mask>
<g mask="url(#mask0)">
<path fill-rule="evenodd" clip-rule="evenodd" d="M27.0132 24.2741L22.8882 20.1461V19.8541L27.0152 15.7271L31.9972 18.5571C33.3932 19.3511 33.3932 20.6491 31.9972 21.4421L27.1082 24.2201L27.0132 24.2741Z" fill="url(#paint0_linear)"/>
</g>
<mask id="mask1" mask-type="alpha" maskUnits="userSpaceOnUse" x="10" y="20" width="18" height="13">
<path d="M27.1081 24.22L22.8881 20L10.4351 32.453C10.8961 32.94 11.6561 33 12.5121 32.514L27.1081 24.22Z" fill="white"/>
</mask>
<g mask="url(#mask1)">
<path fill-rule="evenodd" clip-rule="evenodd" d="M27.1081 24.22L22.8881 20L10.4351 32.453C10.8961 32.94 11.6561 33 12.5121 32.514L27.1081 24.22Z" fill="url(#paint1_linear)"/>
</g>
<mask id="mask2" mask-type="alpha" maskUnits="userSpaceOnUse" x="10" y="7" width="18" height="14">
<path d="M27.1081 15.7801L12.5121 7.48605C11.6561 7.00005 10.8961 7.06005 10.4351 7.54705L22.8881 20.0001L27.1081 15.7801Z" fill="white"/>
</mask>
<g mask="url(#mask2)">
<path fill-rule="evenodd" clip-rule="evenodd" d="M27.1081 15.7801L12.5121 7.48605C11.6561 7.00005 10.8961 7.06005 10.4351 7.54705L22.8881 20.0001L27.1081 15.7801Z" fill="url(#paint2_linear)"/>
</g>
<path fill-rule="evenodd" clip-rule="evenodd" d="M43.497 9.967C43.508 10.916 43.318 11.682 42.927 12.263H45.96V7.737H43.497V9.967ZM42.114 14.273H41.377V12.263H41.963C42.483 11.815 42.737 11.05 42.726 9.967V7H46.732V12.263H47.402V14.273H46.665V13H42.114V14.273Z" fill="#FFFFFE"/>
<path fill-rule="evenodd" clip-rule="evenodd" d="M43.4969 9.96702L43.3969 9.96803V10.049C43.3969 10.947 43.2089 11.664 42.8439 12.207L42.7389 12.363H46.0599V7.63702H43.3969V9.96803L43.4969 9.96702H43.5969V7.83702H45.8599V12.163H42.9269V12.263L43.0099 12.319C43.4039 11.733 43.5969 10.974 43.5969 10.049V9.96602L43.4969 9.96702H43.5969H43.4969ZM42.1139 14.273V14.173H41.4769V12.363H42.0009L42.0289 12.339C42.5689 11.872 42.8269 11.095 42.8259 10.032V9.96602V9.96702V7.10003H46.6319V12.363H47.3019V14.173H46.7639V12.9H42.0139V14.273H42.1139V14.173V14.273H42.2139V13.1H46.5639V14.373H47.5019V12.163H46.8319V6.90002H42.6259V10.032C42.6259 11.067 42.3759 11.777 41.8979 12.187L41.9629 12.263V12.163H41.2769V14.373H42.2139V14.273H42.1139Z" fill="#FFFFFE"/>
<path fill-rule="evenodd" clip-rule="evenodd" d="M49.5849 11.722C50.0289 12.172 50.5719 12.396 51.2139 12.396C51.8569 12.396 52.4009 12.172 52.8439 11.722C53.2889 11.272 53.5109 10.698 53.5109 9.99997C53.5109 9.30197 53.2889 8.72797 52.8439 8.27797C52.4009 7.82797 51.8569 7.60397 51.2139 7.60397C50.5719 7.60397 50.0289 7.82797 49.5849 8.27797C49.1409 8.72797 48.9189 9.30197 48.9189 9.99997C48.9189 10.698 49.1409 11.272 49.5849 11.722ZM53.4149 12.225C52.8249 12.831 52.0909 13.134 51.2139 13.134C50.3369 13.134 49.6039 12.831 49.0149 12.225C48.4249 11.619 48.1309 10.877 48.1309 9.99997C48.1309 9.12297 48.4249 8.38097 49.0149 7.77497C49.6039 7.16897 50.3369 6.86597 51.2139 6.86597C52.0859 6.86597 52.8179 7.16997 53.4109 7.77897C54.0019 8.38797 54.2979 9.12797 54.2979 9.99997C54.2979 10.877 54.0029 11.619 53.4149 12.225Z" fill="#FFFFFE"/>
<path fill-rule="evenodd" clip-rule="evenodd" d="M49.5848 11.722L49.5128 11.792C49.9738 12.26 50.5488 12.498 51.2138 12.497C51.8798 12.498 52.4558 12.26 52.9148 11.792C53.3788 11.325 53.6118 10.719 53.6108 9.99999C53.6118 9.28099 53.3788 8.67599 52.9148 8.20799C52.4558 7.73999 51.8798 7.50299 51.2138 7.50399C50.5488 7.50299 49.9738 7.73999 49.5128 8.20799C49.0508 8.67599 48.8178 9.28099 48.8188 9.99999C48.8178 10.719 49.0508 11.325 49.5128 11.792L49.6558 11.652C49.2308 11.221 49.0188 10.677 49.0188 9.99999C49.0188 9.32299 49.2308 8.77899 49.6558 8.34799C50.0838 7.91599 50.5948 7.70499 51.2138 7.70399C51.8338 7.70499 52.3458 7.91599 52.7728 8.34799L52.7748 8.34999L52.7728 8.34799C53.1978 8.77999 53.4098 9.32299 53.4108 9.99999C53.4098 10.677 53.1978 11.22 52.7728 11.652C52.3458 12.084 51.8338 12.296 51.2138 12.297C50.5948 12.295 50.0838 12.084 49.6558 11.652L49.5848 11.722ZM53.4148 12.225L53.3428 12.155C52.7698 12.743 52.0678 13.033 51.2138 13.034C50.3598 13.033 49.6588 12.743 49.0868 12.155C48.5148 11.566 48.2318 10.855 48.2308 9.99999C48.2318 9.14499 48.5148 8.43399 49.0868 7.84499C49.6588 7.25699 50.3598 6.96699 51.2138 6.96599C52.0628 6.96699 52.7628 7.25899 53.3388 7.84899C53.9128 8.44099 54.1968 9.15099 54.1978 9.99999C54.1968 10.855 53.9138 11.566 53.3428 12.155L53.4148 12.225L53.4858 12.294C54.0928 11.672 54.3988 10.899 54.3978 9.99999C54.3988 9.10599 54.0918 8.33499 53.4818 7.70999C52.8728 7.08199 52.1098 6.76499 51.2138 6.76599C50.3148 6.76499 49.5488 7.08099 48.9428 7.70599H48.9438C48.3358 8.32899 48.0298 9.10099 48.0308 9.99999C48.0298 10.899 48.3358 11.672 48.9438 12.294H48.9428C49.5488 12.92 50.3148 13.235 51.2138 13.234C52.1138 13.235 52.8798 12.92 53.4858 12.294L53.4148 12.225Z" fill="#FFFFFE"/>
<path fill-rule="evenodd" clip-rule="evenodd" d="M58.179 13.134C57.296 13.134 56.556 12.835 55.959 12.237C55.36 11.64 55.062 10.894 55.062 9.99997C55.062 9.10597 55.36 8.35997 55.959 7.76297C56.556 7.16497 57.296 6.86597 58.179 6.86597C59.084 6.86597 59.819 7.19197 60.383 7.84597L59.846 8.36597C59.439 7.85697 58.882 7.60397 58.179 7.60397C57.525 7.60397 56.973 7.82397 56.524 8.26597C56.074 8.70697 55.849 9.28497 55.849 9.99997C55.849 10.715 56.074 11.294 56.524 11.734C56.973 12.176 57.525 12.396 58.179 12.396C58.9 12.396 59.514 12.106 60.023 11.525L60.559 12.062C60.285 12.391 59.942 12.652 59.528 12.845C59.115 13.038 58.665 13.134 58.179 13.134Z" fill="#FFFFFE"/>
<path fill-rule="evenodd" clip-rule="evenodd" d="M58.1789 13.134V13.034C57.3189 13.033 56.6099 12.746 56.0289 12.167C55.4489 11.586 55.1629 10.871 55.1619 10C55.1629 9.129 55.4489 8.414 56.0289 7.833C56.6099 7.254 57.3189 6.967 58.1789 6.966C59.0599 6.967 59.7599 7.279 60.3079 7.912L60.3829 7.846L60.3139 7.774L59.7769 8.294L59.8459 8.366L59.9239 8.304C59.4999 7.771 58.9059 7.502 58.1789 7.504C57.5029 7.503 56.9199 7.735 56.4539 8.194C55.9829 8.654 55.7479 9.265 55.7489 10C55.7479 10.735 55.9829 11.346 56.4539 11.806C56.9199 12.265 57.5029 12.497 58.1789 12.497C58.9269 12.498 59.5749 12.191 60.0979 11.591L60.0229 11.525L59.9519 11.596L60.4879 12.132L60.5589 12.062L60.4819 11.998C60.2169 12.316 59.8879 12.567 59.4859 12.754C59.0859 12.941 58.6509 13.034 58.1789 13.034V13.234C58.6779 13.234 59.1429 13.135 59.5699 12.935C59.9959 12.737 60.3519 12.467 60.6359 12.125L60.6939 12.055L60.0179 11.379L59.9479 11.459C59.4529 12.022 58.8719 12.295 58.1789 12.297C57.5469 12.296 57.0259 12.087 56.5939 11.663C56.1639 11.241 55.9499 10.695 55.9489 10C55.9499 9.306 56.1639 8.76 56.5939 8.337C57.0259 7.913 57.5469 7.705 58.1789 7.704C58.8589 7.705 59.3779 7.944 59.7679 8.429L59.8369 8.514L60.4529 7.918L60.5209 7.852L60.4589 7.781C59.8779 7.106 59.1069 6.764 58.1789 6.766C57.2739 6.765 56.5019 7.076 55.8879 7.692C55.2709 8.307 54.9609 9.084 54.9619 10C54.9609 10.916 55.2709 11.693 55.8879 12.308C56.5019 12.924 57.2739 13.235 58.1789 13.234V13.134Z" fill="#FFFFFE"/>
<path fill-rule="evenodd" clip-rule="evenodd" d="M63.677 13H62.906V7.737H61.23V7H65.353V7.737H63.677V13Z" fill="#FFFFFE"/>
<path fill-rule="evenodd" clip-rule="evenodd" d="M63.6769 13V12.9H63.0059V7.63702H61.3299V7.10003H65.2529V7.63702H63.5769V13H63.6769V12.9V13H63.7769V7.83702H65.4529V6.90002H61.1299V7.83702H62.8059V13.1H63.7769V13H63.6769Z" fill="#FFFFFE"/>
<path fill-rule="evenodd" clip-rule="evenodd" d="M70.6461 7L68.3761 12.062C68.0631 12.776 67.5971 13.134 66.9771 13.134C66.7931 13.134 66.5941 13.089 66.3811 13L66.5821 12.288C66.7111 12.36 66.8451 12.396 66.9851 12.396C67.1641 12.396 67.3021 12.362 67.4001 12.292C67.4981 12.222 67.5881 12.095 67.6721 11.911L67.8901 11.433L65.8711 7H66.7761L68.2591 10.444H68.2921L69.7411 7H70.6461Z" fill="#FFFFFE"/>
<path fill-rule="evenodd" clip-rule="evenodd" d="M70.6459 7.00002L70.5548 6.95902L68.2849 12.021H68.2838C67.9758 12.715 67.5538 13.031 66.9768 13.034C66.8088 13.034 66.6228 12.993 66.4198 12.908L66.3808 13L66.4778 13.027L66.6788 12.315L66.5818 12.288L66.5328 12.375C66.6758 12.455 66.8278 12.497 66.9848 12.497C67.1758 12.496 67.3358 12.46 67.4578 12.373C67.5778 12.286 67.6748 12.145 67.7628 11.952L67.9998 11.433L66.0258 7.10003H66.7098L68.1928 10.544H68.3578L69.8078 7.10003H70.6459V7.00002V6.90002H69.6749L68.1998 10.406L68.2918 10.444V10.344H68.2589V10.444L68.3508 10.405L66.8419 6.90002H65.7148L67.7798 11.433L67.5808 11.869C67.5018 12.045 67.4169 12.158 67.3419 12.211C67.2689 12.263 67.1508 12.297 66.9848 12.297C66.8628 12.296 66.7469 12.265 66.6319 12.201L66.5209 12.138L66.2849 12.973L66.2608 13.058L66.3428 13.092C66.5648 13.186 66.7758 13.234 66.9768 13.234C67.6398 13.237 68.1488 12.838 68.4678 12.102L68.4669 12.103L70.8008 6.90002H70.6459V7.00002Z" fill="#FFFFFE"/>
<path fill-rule="evenodd" clip-rule="evenodd" d="M71.52 13V7H75.86V13H75.089V7.737H72.29V13H71.52Z" fill="#FFFFFE"/>
<path fill-rule="evenodd" clip-rule="evenodd" d="M71.5199 13H71.6189V7.10003H75.7599V12.9H75.1889V7.63702H72.1899V12.9H71.5199V13H71.6189H71.5199V13.1H72.3899V7.83702H74.9889V13.1H75.9599V6.90002H71.4199V13.1H71.5199V13Z" fill="#FFFFFE"/>
<path fill-rule="evenodd" clip-rule="evenodd" d="M77.2339 13V7H78.0049V9.572H81.0049V7H81.7759V13H81.0049V10.293H78.0049V13H77.2339Z" fill="#FFFFFE"/>
<path fill-rule="evenodd" clip-rule="evenodd" d="M77.2338 13H77.3338V7.10003H77.9048V9.67203H81.1048V7.10003H81.6758V12.9H81.1048V10.193H77.9048V12.9H77.2338V13H77.3338H77.2338V13.1H78.1048V10.393H80.9048V13.1H81.8758V6.90002H80.9048V9.47202H78.1048V6.90002H77.1338V13.1H77.2338V13Z" fill="#FFFFFE"/>
<path fill-rule="evenodd" clip-rule="evenodd" d="M84.2279 11.722C84.6719 12.172 85.2149 12.396 85.8569 12.396C86.4999 12.396 87.0439 12.172 87.4869 11.722C87.9319 11.272 88.1539 10.698 88.1539 9.99997C88.1539 9.30197 87.9319 8.72797 87.4869 8.27797C87.0439 7.82797 86.4999 7.60397 85.8569 7.60397C85.2149 7.60397 84.6719 7.82797 84.2279 8.27797C83.7839 8.72797 83.5619 9.30197 83.5619 9.99997C83.5619 10.698 83.7839 11.272 84.2279 11.722ZM88.0579 12.225C87.4679 12.831 86.7339 13.134 85.8569 13.134C84.9799 13.134 84.2469 12.831 83.6579 12.225C83.0679 11.619 82.7739 10.877 82.7739 9.99997C82.7739 9.12297 83.0679 8.38097 83.6579 7.77497C84.2469 7.16897 84.9799 6.86597 85.8569 6.86597C86.7299 6.86597 87.4609 7.16997 88.0539 7.77897C88.6459 8.38797 88.9409 9.12797 88.9409 9.99997C88.9409 10.877 88.6459 11.619 88.0579 12.225Z" fill="#FFFFFE"/>
<path fill-rule="evenodd" clip-rule="evenodd" d="M84.2278 11.722L84.1558 11.792C84.6168 12.26 85.1908 12.498 85.8568 12.497C86.5228 12.498 87.0988 12.26 87.5588 11.792C88.0218 11.325 88.2548 10.719 88.2538 9.99999C88.2548 9.28099 88.0218 8.67599 87.5578 8.20799H87.5588C87.0988 7.73999 86.5228 7.50299 85.8568 7.50399C85.1908 7.50299 84.6168 7.73999 84.1558 8.20799C83.6938 8.67599 83.4608 9.28099 83.4618 9.99999C83.4608 10.719 83.6938 11.325 84.1558 11.792L84.2988 11.652C83.8738 11.221 83.6628 10.677 83.6608 9.99999C83.6628 9.32299 83.8738 8.77899 84.2988 8.34799C84.7268 7.91599 85.2378 7.70499 85.8568 7.70399C86.4768 7.70499 86.9888 7.91599 87.4158 8.34799L87.4188 8.35099L87.4158 8.34799C87.8408 8.77999 88.0528 9.32299 88.0538 9.99999C88.0528 10.677 87.8408 11.22 87.4158 11.652C86.9888 12.084 86.4768 12.296 85.8568 12.297C85.2378 12.295 84.7268 12.084 84.2988 11.652L84.2278 11.722ZM88.0578 12.225L87.9858 12.155C87.4128 12.743 86.7118 13.033 85.8568 13.034C85.0028 13.033 84.3018 12.743 83.7298 12.155L83.7268 12.152L83.7298 12.155C83.1578 11.566 82.8748 10.855 82.8738 9.99999C82.8748 9.14499 83.1578 8.43399 83.7298 7.84499C84.3018 7.25699 85.0028 6.96699 85.8568 6.96599C86.7058 6.96699 87.4058 7.25899 87.9818 7.84899C88.5558 8.44099 88.8398 9.15099 88.8408 9.99999C88.8398 10.855 88.5568 11.566 87.9858 12.155L88.1288 12.294C88.7358 11.672 89.0418 10.899 89.0408 9.99999C89.0418 9.10599 88.7348 8.33499 88.1248 7.70999C87.5158 7.08199 86.7528 6.76499 85.8568 6.76599C84.9568 6.76499 84.1918 7.08099 83.5868 7.70599C82.9788 8.32899 82.6738 9.10099 82.6738 9.99999C82.6738 10.899 82.9788 11.672 83.5868 12.294C84.1918 12.92 84.9578 13.235 85.8568 13.234C86.7568 13.235 87.5228 12.92 88.1288 12.294L88.0578 12.225Z" fill="#FFFFFE"/>
<path fill-rule="evenodd" clip-rule="evenodd" d="M92.8642 12.263H94.4152C94.7112 12.263 94.9512 12.159 95.1362 11.952C95.3202 11.746 95.4122 11.52 95.4122 11.273C95.4122 11.028 95.3172 10.803 95.1272 10.599C94.9382 10.396 94.6882 10.293 94.3812 10.293H92.8642V12.263ZM92.8642 9.572H94.2642C94.5552 9.572 94.7882 9.477 94.9642 9.283C95.1402 9.091 95.2282 8.88 95.2282 8.651C95.2282 8.422 95.1432 8.212 94.9722 8.022C94.8022 7.833 94.5772 7.737 94.2982 7.737H92.8642V9.572ZM92.0942 13V7H94.2642C94.7332 7 95.1402 7.155 95.4832 7.465C95.8272 7.775 95.9992 8.165 95.9992 8.634C95.9992 8.919 95.9252 9.17 95.7762 9.388C95.6292 9.606 95.4322 9.771 95.1862 9.883V9.916C95.4812 10.017 95.7252 10.19 95.9152 10.436C96.1042 10.682 96.2002 10.967 96.2002 11.291C96.2002 11.782 96.0202 12.19 95.6592 12.514C95.2992 12.838 94.8732 13 94.3812 13H92.0942Z" fill="#FFFFFE"/>
<path fill-rule="evenodd" clip-rule="evenodd" d="M92.8641 12.263V12.363H94.4151C94.7341 12.364 95.0091 12.247 95.2101 12.019C95.4081 11.799 95.5131 11.545 95.5121 11.273C95.5131 11.001 95.4041 10.749 95.2001 10.531C94.9931 10.306 94.7101 10.192 94.3811 10.193L92.7641 10.193V12.363L92.8641 12.363V12.263H92.9641V10.393H94.3811C94.6671 10.394 94.8821 10.485 95.0541 10.667C95.2301 10.858 95.3111 11.054 95.3121 11.273C95.3111 11.494 95.2321 11.694 95.0611 11.885V11.886C94.8941 12.072 94.6881 12.161 94.4151 12.163H92.8641V12.263H92.9641H92.8641ZM92.8641 9.57203V9.67203H94.2641C94.5761 9.67403 94.8441 9.56603 95.0381 9.35103C95.2271 9.14503 95.3281 8.90603 95.3281 8.65103C95.3281 8.39703 95.2311 8.15903 95.0461 7.95603C94.8591 7.74403 94.5991 7.63603 94.2981 7.63703L92.7641 7.63702V9.67203H92.8641V9.57203H92.9641V7.83703H94.2981C94.5551 7.83903 94.7451 7.92103 94.8971 8.08903L94.8981 8.09003L94.8971 8.08903C95.0541 8.26503 95.1271 8.44703 95.1281 8.65103C95.1271 8.85403 95.0521 9.03703 94.8901 9.21603C94.7321 9.38803 94.5331 9.47103 94.2641 9.47203H92.8641V9.57203H92.9641H92.8641ZM92.0941 13H92.1941V7.10003H94.2641C94.7111 7.10103 95.0891 7.24503 95.4161 7.53903C95.7411 7.83403 95.8981 8.19003 95.8991 8.63403C95.8991 8.90203 95.8301 9.13103 95.6941 9.33203C95.5561 9.53503 95.3751 9.68703 95.1441 9.79203L95.0861 9.81803V9.98803L95.1531 10.011C95.4321 10.106 95.6571 10.266 95.8361 10.497L95.8371 10.498L95.8361 10.496C96.0121 10.726 96.1001 10.986 96.1001 11.291C96.0991 11.758 95.9331 12.132 95.5921 12.439C95.2481 12.748 94.8511 12.899 94.3811 12.9H92.0941V13H92.1941H92.0941V13.1H94.3811C94.8951 13.101 95.3491 12.928 95.7261 12.588C96.1061 12.248 96.3011 11.807 96.3001 11.291C96.3011 10.947 96.1971 10.637 95.9941 10.375L95.9931 10.373L95.9941 10.374C95.7931 10.114 95.5311 9.92703 95.2181 9.82103L95.1861 9.91603H95.2861V9.88303H95.1861L95.2271 9.97403C95.4881 9.85503 95.7021 9.67803 95.8591 9.44403C96.0191 9.21003 96.0991 8.93603 96.0991 8.63403C96.1001 8.14103 95.9141 7.71703 95.5501 7.39103L95.5481 7.38903L95.5501 7.39003C95.1901 7.06503 94.7551 6.89903 94.2641 6.90003L91.9941 6.90003V13.1L92.0941 13.1V13Z" fill="#FFFFFE"/>
<defs>
<linearGradient id="paint0_linear" x1="31.089" y1="20.0004" x2="6.91208" y2="20.0004" gradientUnits="userSpaceOnUse">
<stop stop-color="#EC942D"/>
<stop offset="1" stop-color="#FBDE1E"/>
</linearGradient>
<linearGradient id="paint1_linear" x1="24.8147" y1="22.2932" x2="8.90029" y2="49.0865" gradientUnits="userSpaceOnUse">
<stop stop-color="#DD4245"/>
<stop offset="1" stop-color="#B72162"/>
</linearGradient>
<linearGradient id="paint2_linear" x1="1.97376" y1="-5.13415" x2="14.9675" y2="16.7421" gradientUnits="userSpaceOnUse">
<stop stop-color="#6CB966"/>
<stop offset="1" stop-color="#299567"/>
</linearGradient>
</defs>
</svg>
